<svg width="32" height="32" viewBox="0 0 32 32" fill="none" xmlns="http://www.w3.org/2000/svg">
<path d="M29.5293 23.4864L23.4863 17.4435L17.4434 23.4864" stroke="#2B83F6" stroke-width="2.5" stroke-linecap="round" stroke-linejoin="round"/>
<path d="M23.4863 17.4435V30.2277" stroke="#2B83F6" stroke-width="2.5" stroke-linecap="round" stroke-linejoin="round"/>
<path d="M30.0002 16.5439V10.1517C30.002 9.6727 29.9092 9.19801 29.7271 8.75493C29.545 8.31185 29.2772 7.9091 28.9391 7.56974C28.601 7.23039 28.1992 6.96114 27.7568 6.77741C27.3144 6.59368 26.8401 6.49914 26.361 6.49915H17.874C16.3618 6.50285 14.9129 7.10658 13.8454 8.17774L10.7836 11.2395C9.9787 12.0351 8.89392 12.4835 7.76213 12.4883H2.01465" stroke="#4E4F60" stroke-width="2" stroke-miterlimit="10" stroke-linecap="round"/>
<path d="M15.4959 6.5394L11.6821 2.98073C10.8371 2.20181 9.72935 1.77028 8.58007 1.77219H5.63916C4.67399 1.77219 3.74834 2.15555 3.06586 2.83804C2.38338 3.52052 2.00001 4.44617 2.00001 5.41134V23.8759C1.99825 24.7094 2.16085 25.5352 2.4786 26.3057C2.79634 27.0763 3.26297 27.7766 3.85172 28.3666C4.44047 28.9566 5.13976 29.4247 5.90964 29.7441C6.67953 30.0634 7.50486 30.2278 8.33836 30.2278H18.0608" stroke="#4E4F60" stroke-width="2" stroke-miterlimit="10" stroke-linecap="round"/>
</svg>
